<?xml version="1.0" encoding="iso-8859-1"?>
<!-- Generator: Adobe Illustrator 19.0.0, SVG Export Plug-In . SVG Version: 6.00 Build 0)  -->
<svg version="1.1" id="Capa_1" xmlns="http://www.w3.org/2000/svg" xmlns:xlink="http://www.w3.org/1999/xlink" x="0px" y="0px"
	 width="24" height="24" viewBox="0 0 512 512" style="enable-background:new 0 0 512 512;" xml:space="preserve">
<circle style="fill:#B6EFAB;" cx="256" cy="256" r="256"/>
<path style="fill:#79D26B;" d="M512,256c0-1.117-0.028-2.228-0.042-3.342L334.679,75.38h-6.895v24.698h-10.083v34.238L259.447,75.38
	h-6.895v24.698H242.47v34.238L184.215,75.38h-6.894v24.698h-10.083v68.59h-65.442V366.64H74.5v23.193l112.84,112.84
	C209.192,508.743,232.215,512,256,512C397.385,512,512,397.385,512,256z"/>
<rect x="177.32" y="75.38" style="fill:#FFFFFF;" width="6.895" height="25.582"/>
<rect x="167.24" y="100.08" style="fill:#802897;" width="27.06" height="71.924"/>
<rect x="252.55" y="75.38" style="fill:#FFFFFF;" width="6.895" height="25.582"/>
<rect x="256" y="75.38" style="fill:#FFF5CB;" width="3.45" height="25.58"/>
<rect x="242.47" y="100.08" style="fill:#FF127F;" width="27.06" height="71.924"/>
<rect x="256" y="100.07" style="fill:#B10853;" width="13.53" height="71.93"/>
<rect x="327.79" y="75.38" style="fill:#FFF5CB;" width="6.895" height="25.582"/>
<rect x="317.7" y="100.08" style="fill:#451152;" width="27.06" height="71.924"/>
<rect x="101.8" y="172" style="fill:#FEC000;" width="308.41" height="201.92"/>
<rect x="256" y="172" style="fill:#FF9A00;" width="154.21" height="201.92"/>
<rect x="101.8" y="296.25" style="fill:#C06200;" width="308.41" height="77.67"/>
<rect x="256" y="296.25" style="fill:#703700;" width="154.21" height="77.67"/>
<rect x="74.5" y="366.64" style="fill:#FFFFFF;" width="363" height="23.19"/>
<rect x="256" y="366.64" style="fill:#FFF5CB;" width="181.5" height="23.19"/>
<path style="fill:#FFFFFF;" d="M410.204,168.668H101.796v76.186c0.228,0.006,0.455,0.017,0.685,0.017
	c11.896,0,22.016-7.592,25.789-18.193c3.773,10.601,13.892,18.193,25.789,18.193c11.896,0,22.016-7.592,25.789-18.193
	c3.773,10.601,13.892,18.193,25.789,18.193c11.896,0,22.015-7.592,25.789-18.193c3.773,10.601,13.892,18.193,25.789,18.193
	c11.896,0,22.016-7.592,25.789-18.193c3.773,10.601,13.892,18.193,25.789,18.193c11.896,0,22.016-7.592,25.789-18.193
	c3.773,10.601,13.892,18.193,25.788,18.193c10.79,0,20.119-6.246,24.576-15.318c4.457,9.072,13.786,15.318,24.576,15.318
	c0.23,0,0.457-0.012,0.685-0.017v-76.186H410.204z"/>
<path style="fill:#FFF5CB;" d="M410.207,168.664v76.19c-0.23,0.01-0.46,0.02-0.69,0.02c-10.79,0-20.12-6.25-24.57-15.32
	c-4.46,9.07-13.79,15.32-24.58,15.32c-11.9,0-22.02-7.59-25.79-18.2c-3.77,10.61-13.89,18.2-25.79,18.2
	c-11.89,0-22.01-7.59-25.79-18.2c-3.77,10.61-13.89,18.2-25.78,18.2c-0.41,0-0.82-0.01-1.22-0.03v-76.18L410.207,168.664
	L410.207,168.664z"/>
<g>
</g>
<g>
</g>
<g>
</g>
<g>
</g>
<g>
</g>
<g>
</g>
<g>
</g>
<g>
</g>
<g>
</g>
<g>
</g>
<g>
</g>
<g>
</g>
<g>
</g>
<g>
</g>
<g>
</g>
</svg>
