<svg id="Capa_1" enable-background="new 0 0 512 512" height="24" viewBox="0 0 512 512" width="24" xmlns="http://www.w3.org/2000/svg"><g><g><g><g><g><g><g><g><g><circle cx="256" cy="256" fill="#96e8ff" r="256"/></g></g></g></g></g></g></g></g><path d="m277.774 511.087c131.193-11.05 234.226-121.036 234.226-255.087 0-2.979-.051-5.947-.152-8.901l-100.083-100.083-15.898 40.26-123.971-123.971-208.194 219.674 182.246 182.246-5.843 8.192z" fill="#19cffc"/><g><path d="m240.104 63.305h31.792v410.112h-31.792z" fill="#707789"/></g><g><path d="m255.844 63.305h16.052v410.112h-16.052z" fill="#555a66"/></g><g><g><path d="m54.765 260.911c0-99.353 90.096-179.894 201.235-179.894s201.235 80.541 201.235 179.894z" fill="#ff636e"/></g><g><path d="m256 81.017c-.052 0-.104.002-.156.002v179.892h201.391c0-99.352-90.096-179.894-201.235-179.894z" fill="#f03049"/></g><g><path d="m135.259 260.911c0-99.353 54.058-179.894 120.741-179.894s120.741 80.541 120.741 179.894z" fill="#fff"/></g><g><path d="m256 81.017c-.052 0-.104.003-.156.003v179.891h120.897c0-99.352-54.057-179.894-120.741-179.894z" fill="#e9edf5"/></g><g><path d="m215.753 260.911c0-99.353 18.019-179.894 40.247-179.894s40.247 80.541 40.247 179.894z" fill="#ff636e"/></g><g><path d="m256 81.017c-.052 0-.104.008-.156.009v179.885h40.403c0-99.352-18.019-179.894-40.247-179.894z" fill="#f03049"/></g><g><path d="m135.259 260.382c0 19.871-18.019 35.979-40.247 35.979s-40.247-16.108-40.247-35.979z" fill="#fff"/></g><g><path d="m296.247 260.382c0 19.871-18.019 35.979-40.247 35.979s-40.247-16.108-40.247-35.979z" fill="#fff"/></g><g><path d="m255.844 260.382v35.975c.052 0 .104.004.156.004 22.228 0 40.247-16.108 40.247-35.979z" fill="#e9edf5"/></g><g><path d="m215.753 260.382c0 19.871-18.019 35.979-40.247 35.979s-40.247-16.108-40.247-35.979z" fill="#ff636e"/></g><g><path d="m457.235 260.382c0 19.871-18.019 35.979-40.247 35.979s-40.247-16.108-40.247-35.979z" fill="#e9edf5"/></g><g><path d="m376.741 260.382c0 19.871-18.019 35.979-40.247 35.979s-40.247-16.108-40.247-35.979z" fill="#f03049"/></g></g></g></svg>
