<svg id="Capa_1" enable-background="new 0 0 512 512" height="18" viewBox="0 0 512 512" width="18" xmlns="http://www.w3.org/2000/svg"><g><path d="m0 256c0-141.2 114.316-255.701 255.447-255.999 141.239-.299 255.402 112.646 256.544 253.881.584 72.206-28.728 137.569-76.3 184.455-4.438 4.374-11.472 4.586-16.266.606-44.336-36.81-101.296-58.943-163.425-58.943-61.398 0-117.747 21.614-161.854 57.649-5.833 4.765-14.308 4.253-19.62-1.086-46.06-46.29-74.526-110.102-74.526-180.563z" fill="#9bcf1b"/><path d="m511.739 267.669c-2.993 66.716-31.522 126.785-76.047 170.668-4.438 4.374-11.472 4.586-16.266.606-44.337-36.81-101.297-58.943-163.426-58.943-61.398 0-117.747 21.614-161.854 57.648-5.833 4.765-14.308 4.253-19.62-1.085-43.503-43.721-71.312-103.073-74.265-168.894z" fill="#84b017"/><path d="m311 50h-22.5v-17.5c0-17.92-14.58-32.5-32.5-32.5s-32.5 14.58-32.5 32.5v17.5h-22.5c-12.407 0-22.5 10.093-22.5 22.5v30c0 12.407 10.093 22.5 22.5 22.5h110c12.407 0 22.5-10.093 22.5-22.5v-30c0-12.407-10.093-22.5-22.5-22.5zm7.5 52.5c0 4.136-3.364 7.5-7.5 7.5h-110c-4.136 0-7.5-3.364-7.5-7.5v-30c0-4.136 3.364-7.5 7.5-7.5h30c4.142 0 7.5-3.358 7.5-7.5v-25c0-9.649 7.851-17.5 17.5-17.5s17.5 7.851 17.5 17.5v25c0 4.142 3.358 7.5 7.5 7.5h30c4.136 0 7.5 3.364 7.5 7.5z" fill="#7e8b96"/><path d="m102.181 460.654c-10.114-7.614-19.645-15.959-28.515-24.959v-315.695c0-16.569 13.431-30 30-30h45.083c-16.569 0-30 13.432-30 30v332.327c.001 8.53-9.753 13.457-16.568 8.327z" fill="#ff9f22"/><path d="m436.167 120v317.868c-13.418 13.293-28.3 25.112-44.382 35.194v-275.458c0-21.044-17.06-38.104-38.104-38.104h-249.422v-39.5c0-16.568 13.431-30 30-30h271.907c16.569 0 30.001 13.432 30.001 30z" fill="#ffc14f"/><path d="m191.667 158.382v345.466c-33.066-8.559-63.539-23.559-90-43.583v-301.883c0-8.284 6.716-15 15-15h60c8.284 0 15 6.716 15 15z" fill="#def4f8"/><path d="m438.333 512h-245.95c-23.151 0-70.716-12.467-70.716-102v-273.254c0-8.284 6.716-15 15-15h255.887c8.284 0 15 6.716 15 15v273.254c0 89.568 30.779 102 30.779 102z" fill="#fff5f5"/><path d="m352 103.382v10c0 11.046-8.954 20-20 20h-10c0 11.046-8.954 20-20 20h-92c-11.046 0-20-8.954-20-20h-10c-11.046 0-20-8.954-20-20v-10c0-11.046 8.954-20 20-20h152c11.046 0 20 8.954 20 20z" fill="#b9c3cd"/><path d="m332 133.382h-122.048c-11.046 0-20-8.954-20-20v-10c0-11.046 8.954-20 20-20h122.048c11.046 0 20 8.954 20 20v10c0 11.046-8.954 20-20 20z" fill="#c8d2dc"/><path d="m334.5 115.882h-157c-4.142 0-7.5-3.358-7.5-7.5 0-4.142 3.358-7.5 7.5-7.5h157c4.142 0 7.5 3.358 7.5 7.5 0 4.142-3.358 7.5-7.5 7.5z" fill="#a2abb8"/><path d="m201 108.382c0 4.142-3.358 7.5-7.5 7.5h-5c-4.142 0-7.5-3.358-7.5-7.5s3.358-7.5 7.5-7.5h5c4.142 0 7.5 3.358 7.5 7.5zm122.5-7.5h-5c-4.142 0-7.5 3.358-7.5 7.5s3.358 7.5 7.5 7.5h5c4.142 0 7.5-3.358 7.5-7.5s-3.358-7.5-7.5-7.5z" fill="#7e8b96"/><path d="m354 263v50.19c0 5.523-4.477 10-10 10h-178c-5.523 0-10-4.477-10-10v-50.19c0-52.467 42.533-95 95-95h8c52.467 0 95 42.533 95 95z" fill="#def4f8"/><path d="m298.105 320.938h-88.924v-80.278h88.924z" fill="#a2abb8"/><path d="m268.404 296.237h-29.522c-2.761 0-5-2.239-5-5v-20.876c0-2.761 2.239-5 5-5h29.522c2.761 0 5 2.239 5 5v20.876c0 2.762-2.239 5-5 5z" fill="#ffc14f"/><path d="m364.167 375h-117c-4.142 0-7.5-3.358-7.5-7.5 0-4.142 3.358-7.5 7.5-7.5h117c4.142 0 7.5 3.358 7.5 7.5 0 4.142-3.358 7.5-7.5 7.5zm-32.5 17.5c0-4.142-3.358-7.5-7.5-7.5h-77c-4.142 0-7.5 3.358-7.5 7.5 0 4.142 3.358 7.5 7.5 7.5h77c4.142 0 7.5-3.358 7.5-7.5zm-130 2.5v-30c0-2.761-2.239-5-5-5h-30c-2.761 0-5 2.239-5 5v30c0 2.761 2.239 5 5 5h30c2.761 0 5-2.239 5-5zm170 32.5c0-4.142-3.358-7.5-7.5-7.5h-117c-4.142 0-7.5 3.358-7.5 7.5 0 4.142 3.358 7.5 7.5 7.5h117c4.142 0 7.5-3.358 7.5-7.5zm-40 25c0-4.142-3.358-7.5-7.5-7.5h-77c-4.142 0-7.5 3.358-7.5 7.5 0 4.142 3.358 7.5 7.5 7.5h77c4.142 0 7.5-3.358 7.5-7.5zm-130 2.5v-30c0-2.761-2.239-5-5-5h-30c-2.761 0-5 2.239-5 5v30c0 2.761 2.239 5 5 5h30c2.761 0 5-2.239 5-5zm133.952-131.811c0-4.142-3.358-7.5-7.5-7.5h-148.952c-4.142 0-7.5 3.358-7.5 7.5 0 4.142 3.358 7.5 7.5 7.5h148.952c4.142 0 7.5-3.357 7.5-7.5z" fill="#c8d2dc"/><path d="m278.009 235.733v-40.733c0-4.142 3.358-7.5 7.5-7.5 4.142 0 7.5 3.358 7.5 7.5v40.733c0 4.142-3.358 7.5-7.5 7.5-4.142 0-7.5-3.358-7.5-7.5z" fill="#c8d2dc"/><path d="m225.303 357.426-37.375 37.375c-1.406 1.407-3.314 2.197-5.303 2.197s-3.897-.79-5.303-2.197l-14.749-14.749c-2.929-2.929-2.929-7.678 0-10.606 2.929-2.929 7.678-2.929 10.606 0l9.445 9.445 32.071-32.071c2.929-2.929 7.678-2.929 10.606 0 2.931 2.929 2.931 7.678.002 10.606zm-36.374-111.061 62.312-53.061c1.384-1.179 3.42-1.179 4.804 0l62.312 53.061c2.624 2.234 1.044 6.526-2.402 6.526h-124.624c-3.446 0-5.026-4.292-2.402-6.526z" fill="#e5554e"/></g></svg>
