<?xml version="1.0" encoding="iso-8859-1"?>
<!-- Generator: Adobe Illustrator 19.0.0, SVG Export Plug-In . SVG Version: 6.00 Build 0)  -->
<svg version="1.1" id="Capa_1" xmlns="http://www.w3.org/2000/svg" xmlns:xlink="http://www.w3.org/1999/xlink" x="0px" y="0px"
	 viewBox="0 0 512 512" style="enable-background:new 0 0 512 512;" xml:space="preserve" width="18" height="18">
<circle style="fill:#00ABE9;" cx="256" cy="256" r="256"/>
<path style="fill:#0080AF;" d="M508.302,299.506L426,217.204l-48.83-3.15L255.867,92.293l-9.36,154.199L86,217.204l110.952,110.844
	l-47.468,91.562l91.97,91.97c4.816,0.27,9.663,0.42,14.546,0.42C382.553,512,487.642,420.166,508.302,299.506z"/>
<path style="fill:#FFD400;" d="M426,217.204l-123.515-7.969L255.867,92.294l-46.618,116.941L86,217.204l94.562,80.484
	L149.484,419.61l106.383-67.336L362.25,419.61l-31.078-121.922L426,217.204z"/>
<polygon style="fill:#FDBF00;" points="331.172,297.688 362.25,419.61 255.867,352.274 255.867,92.294 302.485,209.235 426,217.204 
	"/>
<g>
</g>
<g>
</g>
<g>
</g>
<g>
</g>
<g>
</g>
<g>
</g>
<g>
</g>
<g>
</g>
<g>
</g>
<g>
</g>
<g>
</g>
<g>
</g>
<g>
</g>
<g>
</g>
<g>
</g>
</svg>
