<svg height="24" viewBox="0 0 512 512" width="24" xmlns="http://www.w3.org/2000/svg"><path d="m512 256c0 141.386719-114.613281 256-256 256s-256-114.613281-256-256 114.613281-256 256-256 256 114.613281 256 256zm0 0" fill="#414952"/><path d="m512 256c0-20.742188-2.484375-40.898438-7.140625-60.210938l-41.390625-41.390624-6.804688 3.78125-69.421874-69.421876-262.484376 334.484376 84.480469 84.484374c15.164063 2.796876 30.789063 4.273438 46.761719 4.273438 141.386719 0 256-114.613281 256-256zm0 0" fill="#23272b"/><path d="m195.769531 88.757812-71.011719 71.015626v263.46875h262.484376v-334.484376zm0 0" fill="#fff"/><path d="m255.808594 88.757812h131.433594v334.484376h-131.433594zm0 0" fill="#e9edf5"/><path d="m195.769531 159.773438v-71.015626l-71.011719 71.015626zm0 0" fill="#19cffc"/><path d="m146.5 185h219v23h-219zm0 0" fill="#b5efff"/><path d="m255.808594 185h109.691406v23h-109.691406zm0 0" fill="#96e8ff"/><path d="m146.5 233.226562h219v23h-219zm0 0" fill="#b5efff"/><path d="m255.808594 233.226562h109.691406v23h-109.691406zm0 0" fill="#96e8ff"/><path d="m146.5 281.457031h219v23h-219zm0 0" fill="#b5efff"/><path d="m255.808594 281.457031h109.691406v23h-109.691406zm0 0" fill="#96e8ff"/><path d="m146.5 329.683594h219v23h-219zm0 0" fill="#b5efff"/><path d="m255.808594 329.683594h109.691406v23h-109.691406zm0 0" fill="#96e8ff"/><path d="m430.125 121.054688 33.339844 33.339843-208.285156 208.285157-33.339844-33.339844zm0 0" fill="#f03049"/><path d="m238.371094 345.875 208.285156-208.285156 16.808594 16.808594-208.285156 208.285156zm0 0" fill="#d1093a"/><path d="m255.179688 362.683594-39.054688 5.71875 5.714844-39.058594zm0 0" fill="#ff7d81"/><path d="m216.125 368.402344 39.054688-5.71875-16.804688-16.808594zm0 0" fill="#ff636e"/><path d="m439.484375 130.414062 14.621094 14.621094-79.0625 79.0625-14.621094-14.621094zm0 0" fill="#ff7d81"/><path d="m367.59375 216.65625 79.0625-79.0625 7.449219 7.445312-79.0625 79.0625zm0 0" fill="#ff636e"/></svg>
