<?xml version="1.0"?>
<svg xmlns="http://www.w3.org/2000/svg" id="Capa_1" enable-background="new 0 0 512 512" height="18" viewBox="0 0 512 512" width="18" class=""><g><g><g><circle cx="256" cy="256" fill="#ff6b6b" r="256" data-original="#D7D7FF" class="" style="fill:#5F7D95" data-old_color="#ff6b6b"/><path d="m256 0v512c141.385 0 256-114.615 256-256s-114.615-256-256-256z" fill="#ff1f3d" data-original="#5F7D95" class="active-path" style="fill:#374957" data-old_color="#ff1f3d"/><g><path d="m351.007 127.429c-.53-4.488-3.055-8.499-6.874-10.916-26.366-16.691-56.842-25.513-88.133-25.513-88.467 0-160.887 69.987-164.822 157.5h-15.178c-5.718 0-10.859 3.177-13.416 8.292-2.558 5.114-2.015 11.133 1.416 15.708l45 60c2.86 3.813 7.233 6 12 6s9.14-2.187 12-6l45-60c3.431-4.575 3.974-10.594 1.416-15.708-2.557-5.115-7.698-8.292-13.416-8.292h-14.729c3.859-54.41 49.354-97.5 104.729-97.5 17.757 0 35.451 4.661 51.167 13.479 5.93 3.329 13.354 2.251 18.093-2.623l21.603-22.212c3.151-3.239 4.674-7.727 4.144-12.215z" fill="#f9f9f9" data-original="#F9F9F9" class=""/><path d="m325.26 161.856 21.603-22.212c3.151-3.239 4.673-7.728 4.144-12.216s-3.055-8.499-6.874-10.916c-26.366-16.69-56.842-25.512-88.133-25.512v60c17.757 0 35.451 4.661 51.167 13.479 5.93 3.33 13.354 2.251 18.093-2.623z" fill="#e2dff4" data-original="#E2DFF4" class="" style="fill:#E2DFF4"/><path d="m448 239.5-45-60c-2.86-3.813-7.233-6-12-6s-9.14 2.187-12 6l-45 60c-3.431 4.575-3.974 10.594-1.416 15.708 2.557 5.115 7.698 8.292 13.416 8.292h14.729c-3.859 54.41-49.354 97.5-104.729 97.5-17.757 0-35.451-4.661-51.167-13.479-5.93-3.329-13.354-2.251-18.093 2.623l-21.603 22.212c-3.151 3.239-4.673 7.728-4.144 12.216s3.055 8.499 6.874 10.916c26.366 16.69 56.842 25.512 88.133 25.512 88.467 0 160.887-69.987 164.822-157.5h15.178c5.718 0 10.859-3.177 13.416-8.292 2.558-5.114 2.015-11.133-1.416-15.708z" fill="#f9f9f9" data-original="#F9F9F9" class=""/><path d="m448 239.5-45-60c-2.86-3.813-7.233-6-12-6s-9.14 2.187-12 6l-45 60c-3.431 4.575-3.974 10.594-1.416 15.708 2.557 5.115 7.698 8.292 13.416 8.292h14.729c-3.859 54.41-49.354 97.5-104.729 97.5v60c88.467 0 160.887-69.987 164.822-157.5h15.178c5.718 0 10.859-3.177 13.416-8.292 2.558-5.114 2.015-11.133-1.416-15.708z" fill="#e2dff4" data-original="#E2DFF4" class="" style="fill:#E2DFF4"/></g></g></g></g> </svg>
