<?xml version="1.0" encoding="iso-8859-1"?>
<!-- Generator: Adobe Illustrator 19.0.0, SVG Export Plug-In . SVG Version: 6.00 Build 0)  -->
<svg version="1.1" id="Capa_1" xmlns="http://www.w3.org/2000/svg" xmlns:xlink="http://www.w3.org/1999/xlink" x="0px" y="0px"
	 viewBox="0 0 512 512" width="18" height="18" style="enable-background:new 0 0 512 512;" xml:space="preserve">
<circle style="fill:#005C83;" cx="256" cy="256" r="256"/>
<path style="fill:#00263F;" d="M262.515,511.917c136.22-3.403,246.017-113.212,249.403-249.436l-131.2-131.2L254.5,86
	l-77.264,23.139l-26.785-26.785l-20,68.6l64.74,64.74l-48.28,13.997l75.06,75.06l-42.605,32.168l92.725,92.725L131.298,380.7
	L262.515,511.917z"/>
<g>
	<path style="fill:#B9EAFF;" d="M150.451,114.698V82.354h-20v68.6h68.6v-20h-36.939c61.212-46.029,148.78-41.213,204.463,14.469
		l14.143-14.142C318.02,68.583,219.476,63.063,150.451,114.698z"/>
	<path style="fill:#B9EAFF;" d="M256.008,432.274c-45.169,0-90.323-17.188-124.71-51.574l14.143-14.143
		c60.967,60.967,160.168,60.967,221.135,0l14.143,14.143C346.339,415.079,301.166,432.274,256.008,432.274z"/>
</g>
<path style="fill:#35CCFF;" d="M255.952,79.708v19.99c40.06-0.014,80.125,15.228,110.623,45.725l14.143-14.142
	C346.321,96.885,301.135,79.694,255.952,79.708z"/>
<path style="fill:#FFDC00;" d="M345.582,255.198c0-4.631-0.461-9.145-1.138-13.587l20.646-11.92l-32.455-56.214l-20.594,11.89
	c-7.06-5.673-15.007-10.255-23.586-13.595V147.97h-64.91v23.802c-8.579,3.34-16.525,7.923-23.585,13.595l-20.594-11.89
	l-32.455,56.214l20.646,11.92c-0.678,4.442-1.138,8.956-1.138,13.587c0,4.631,0.461,9.145,1.138,13.587l-20.646,11.92l32.455,56.214
	l20.594-11.89c7.06,5.673,15.007,10.255,23.585,13.595v23.802h64.91v-23.802c8.579-3.34,16.525-7.922,23.586-13.595l20.594,11.89
	l32.455-56.214l-20.646-11.92C345.121,264.343,345.582,259.829,345.582,255.198z M255.999,294.29
	c-21.59,0-39.092-17.501-39.092-39.091s17.502-39.092,39.092-39.092s39.092,17.502,39.092,39.092S277.589,294.291,255.999,294.29z"
	/>
<path style="fill:#FFC000;" d="M345.582,255.198c0-4.631-0.461-9.146-1.138-13.587l20.646-11.92l-32.455-56.214l-20.594,11.89
	c-7.06-5.673-15.006-10.255-23.585-13.595V147.97h-32.502v68.139c0.016,0,0.031-0.001,0.047-0.001
	c21.589,0,39.092,17.502,39.092,39.092s-17.502,39.092-39.092,39.091c-0.016,0-0.031-0.001-0.047-0.001v68.136h32.502v-23.802
	c8.579-3.34,16.525-7.922,23.585-13.595l20.594,11.89l32.455-56.213l-20.646-11.92C345.121,264.343,345.582,259.829,345.582,255.198
	z"/>
<path style="fill:#35CCFF;" d="M315.77,360.254v20h35.159c-27.922,21.359-61.449,32.04-94.976,32.028v19.991
	c0.019,0,0.037,0.001,0.055,0.001c38.311,0,76.629-12.382,108.361-37.127v33.707h20v-68.6L315.77,360.254L315.77,360.254z"/>
<g>
</g>
<g>
</g>
<g>
</g>
<g>
</g>
<g>
</g>
<g>
</g>
<g>
</g>
<g>
</g>
<g>
</g>
<g>
</g>
<g>
</g>
<g>
</g>
<g>
</g>
<g>
</g>
<g>
</g>
</svg>
