<svg height="18" viewBox="0 0 512 512.001" width="18" xmlns="http://www.w3.org/2000/svg"><path d="m512 256c0 141.386719-114.613281 256-256 256-141.382812 0-256-114.613281-256-256s114.617188-256 256-256c141.386719 0 256 114.613281 256 256zm0 0" fill="#537983"/><path d="m322.710938 178.429688-3.292969 3.289062-89.125-89.125-46.871094 46.875-1.4375-1.4375-91.210937 91.210938 156.308593 156.308593-3.972656 3.96875-55-55-79.792969 12.796875-17.648437 6.644532 157.925781 157.925781c2.460938.070312 4.929688.113281 7.40625.113281 108.222656 0 200.761719-67.152344 238.21875-162.066406zm0 0" fill="#3e5959"/><path d="m149.777344 373.460938h97.476562v19.496093h-97.476562zm0 0" fill="#c5d3dd"/><path d="m90.636719 334.46875h97.480469v19.496094h-97.480469zm0 0" fill="#c5d3dd"/><path d="m423.363281 353.964844v38.992187h-130.878906l-35.484375-28.464843-166.363281-135.296876 21.835937-32.753906 31.582032.585938 112.945312 92.601562 56.148438 44.839844h88.964843zm0 0" fill="#deecf1"/><path d="m423.363281 353.964844v38.992187h-130.878906l-35.484375-28.464843v-74.863282l56.148438 44.839844h88.964843zm0 0" fill="#c5d3dd"/><path d="m423.363281 344.21875v9.746094h-117.234375l-49.128906-39.378906-82.140625-67.847657-11.894531-25.539062c5.265625-19.6875 1.171875-40.550781-10.914063-56.730469l2.730469-26.710938 41.328125-56.535156 4.679687-.195312c20.859376-.78125 38.601563 14.621094 40.941407 35.09375 1.753906 15.398437 5.523437 29.046875 15.269531 39.574218 12.867188 14.035157 31.386719 22.8125 51.859375 22.8125h13.839844c-.582031 13.449219-1.167969 20.859376 1.757812 33.921876l-8.191406 14.230468 14.429687 4.484375c1.753907 3.703125 3.507813 7.015625 5.652344 10.332031l-.585937 15.402344 12.867187-.195312c1.949219 2.144531 4.09375 4.09375 6.4375 6.042968l1.753906 14.230469 14.621094-3.507812c.195313.195312.585938.195312.777344.390625l10.332031 5.457031c24.761719 12.085937 40.8125 37.042969 40.8125 64.921875zm0 0" fill="#61d7a8"/><path d="m423.363281 344.21875v9.746094h-117.234375l-49.128906-39.378906v-158.890626c12.867188 14.035157 31.386719 22.8125 51.859375 22.8125h13.839844c-.582031 13.449219-1.167969 20.859376 1.757812 33.921876l-8.191406 14.230468 14.429687 4.484375c1.753907 3.703125 3.507813 7.015625 5.652344 10.332031l-.585937 15.402344 12.867187-.195312c1.949219 2.144531 4.09375 4.09375 6.4375 6.042968l1.753906 14.230469 14.621094-3.507812c.195313.195312.585938.195312.777344.390625l10.332031 5.457031c24.761719 12.085937 40.8125 37.042969 40.8125 64.921875zm0 0" fill="#00ab94"/><path d="m174.847656 246.835938-62.863281-50.359376 42.789063-58.78125 8.042968 8.957032c21.378906 23.808594 27.785156 57.328125 16.707032 87.464844zm0 0" fill="#00ab94"/><g fill="#c5d3dd"><path d="m324.457031 212.429688c1.363281 6.625 3.507813 12.867187 6.238281 18.714843l-41.917968 16.375-7.210938-18.324219zm0 0"/><path d="m336.347656 241.476562c3.507813 5.457032 7.605469 10.722657 12.28125 15.207032l-27.488281 27.292968-13.644531-13.648437zm0 0"/><path d="m355.0625 262.726562c4.875 4.09375 10.332031 7.796876 16.378906 10.722657l-17.9375 36.066406-17.546875-8.578125zm0 0"/></g></svg>
